# xmcd CD database generated by RipIT
#
# Track frame offsets:
# 150
# 13028
# 25383
# 41347
# 59206
# 74473
# 89865
# 106258
# 121574
# 141715
# 159352
# 173800
# 186610
#
# Disc length: 2722 seconds
#
# Revision: 0
# Processed by: cddbd v1.5.1PL0 Copyright (c) Steve Scherf et al.
# Submitted via: RipIT 3.3.3 www.suwald.com/ripit/ripit.html at lun mai  9 18:17:11 EDT 2005
#
DISCID=c00aa00d
DTITLE=Henri Salvador - Chambre avec vue
DYEAR=2000
DGENRE=Blues
TTITLE0=Jardin d'hiver
TTITLE1=Chambre avec vue
TTITLE2=J'ai vu
TTITLE3=Il fait dimanche
TTITLE4=La muraille de Chine
TTITLE5=Jazz Méditerranée
TTITLE6=Un tour de manège (En duo avec Toots Thielemans)
TTITLE7=Vagabond
TTITLE8=Je sais que tu sais
TTITLE9=Mademoiselle
TTITLE10=Le fou de la reine (En duo avec Françoise Hardy)
TTITLE11=Faire des ronds dans l'eau
TTITLE12=Aime-moi
EXTD=1996
EXTT0=
EXTT1=
EXTT2=
EXTT3=
EXTT4=
EXTT5=
EXTT6=
EXTT7=
EXTT8=
EXTT9=
EXTT10=
EXTT11=
EXTT12=
PLAYORDER=
